# xmcd CD database file
#
# Track frame offsets:
#	150
#	20890
#	45340
#	61977
#	80285
#	103817
#	120647
#	136727
#	155097
#	171947
#	188622
#	209560
#	228597
#	242835
#	258205
#	275277
#	296680
#
# Disc length: 4299 seconds
#
# Revision: 0
# Processed by: cddbd v1.4PL0 Copyright (c) Steve Scherf et al.
# Submitted via: CDex 1.51
#
DISCID=f210c911
DTITLE=Brownie McGhee and Sonny Terry - Mr. Brownie and Mr. Sonny - The Bluesville Years
DYEAR=1900
DGENRE=Blues
TTITLE0=Jump, Little Children
TTITLE1=Lonesome Day
TTITLE2=The Killin' Floor
TTITLE3=I Don't Know the Reason
TTITLE4=Everyday I Have the Blues
TTITLE5=I Ain't Gonna Be Your Dog No More
TTITLE6=Four O'Clock Blues
TTITLE7=I'm Gonna Get On My Feets Afterwhile
TTITLE8=Diggin' My Potatoes
TTITLE9=One Monkey Don't Stop the Show
TTITLE10=Evil Hearted Me
TTITLE11=Spread the News Around
TTITLE12=Custard Pie
TTITLE13=Wholesale Dealin' Papa
TTITLE14=Motorcycle Blues
TTITLE15=Hand In Hand
TTITLE16=I Woke Up One Morning and I Could Hardly See
EXTD=
EXTT0=
EXTT1=
EXTT2=
EXTT3=
EXTT4=
EXTT5=
EXTT6=
EXTT7=
EXTT8=
EXTT9=
EXTT10=
EXTT11=
EXTT12=
EXTT13=
EXTT14=
EXTT15=
EXTT16=
PLAYORDER=
